<svg xmlns="http://www.w3.org/2000/svg" viewBox="0 0 241 242" width="241" height="242" stroke="white" fill="none"><g id="circles"><path id="el-1" d="M64,121c0,30.93 25.07,56 56,56c30.93,0 56,-25.07 56,-56c0,-30.93 -25.07,-56 -56,-56c-30.93,0 -56,25.07 -56,56z" /><path id="el-2" d="M153,78.5c0,1.38 1.12,2.5 2.5,2.5c1.38,0 2.5,-1.12 2.5,-2.5c0,-1.38 -1.12,-2.5 -2.5,-2.5c-1.38,0 -2.5,1.12 -2.5,2.5z" /><path id="el-3" d="M43,121c0,42.53 34.47,77 77,77c42.53,0 77,-34.47 77,-77c0,-42.53 -34.47,-77 -77,-77c-42.53,0 -77,34.47 -77,77z" /><path id="el-4" d="M81,187.5c0,1.38 1.12,2.5 2.5,2.5c1.38,0 2.5,-1.12 2.5,-2.5c0,-1.38 -1.12,-2.5 -2.5,-2.5c-1.38,0 -2.5,1.12 -2.5,2.5z" /><path id="el-5" d="M0,121.5c0,66.55 53.95,120.5 120.5,120.5c66.55,0 120.5,-53.95 120.5,-120.5c0,-66.55 -53.95,-120.5 -120.5,-120.5c-66.55,0 -120.5,53.95 -120.5,120.5z" /><path id="el-6" d="M17,56.5c0,1.38 1.12,2.5 2.5,2.5c1.38,0 2.5,-1.12 2.5,-2.5c0,-1.38 -1.12,-2.5 -2.5,-2.5c-1.38,0 -2.5,1.12 -2.5,2.5z" /></g></svg>
