<svg xmlns="http://www.w3.org/2000/svg" viewBox="0 0 241 242" width="241" height="242" stroke="#fff" fill="none"><path d="M64 121c0 30.93 25.07 56 56 56s56-25.07 56-56-25.07-56-56-56-56 25.07-56 56z"/><path d="M153 78.5a2.5 2.5 0 0 0 5 0 2.5 2.5 0 0 0-5 0z"/><path d="M43 121c0 42.53 34.47 77 77 77s77-34.47 77-77-34.47-77-77-77-77 34.47-77 77z"/><path d="M81 187.5a2.5 2.5 0 0 0 5 0 2.5 2.5 0 0 0-5 0z"/><path d="M0 121.5C0 188.05 53.95 242 120.5 242S241 188.05 241 121.5 187.05 1 120.5 1 0 54.95 0 121.5z"/><path d="M17 56.5a2.5 2.5 0 0 0 5 0 2.5 2.5 0 0 0-5 0z"/></svg>