<svg xmlns="http://www.w3.org/2000/svg" viewBox="0 0 97 76" width="97" height="76" fill="#7F38BD"><path d="M12.1.1h73.8C92 .1 97 5.1 97 11.2v53.5c0 6.1-5 11.1-11.1 11.1H12.1c-3 0-5.9-1.2-8-3.4-2-2.1-3.1-4.8-3.1-7.7V11.2c0-2.9 1.1-5.6 3.1-7.7 2.1-2.1 5-3.4 8-3.4zM16 20.2l16.7 17.1L15.9 56c-1.2 1.3-1.2 3.4.1 4.7 1.3 1.3 3.5 1.3 4.9 0l17.7-17.4 4.8 4.9c1.5 1.4 3.5 2.2 5.6 2.2 2.1 0 4.1-.8 5.6-2.2l4.8-4.9 17.7 17.5c1.3 1.2 3.3 1.3 4.7.1 1.4-1.2 1.6-3.4.3-4.9L65.3 37.2l16.7-17c1.2-1.3 1.3-3.3.1-4.7-1.2-1.4-3.4-1.6-4.9-.3L49 39.9 20.8 15.1c-1.5-1.2-3.6-1.1-4.9.3-1.2 1.4-1.2 3.5.1 4.8z"/></svg>